<?xml version="1.0" standalone="no"?>
<!DOCTYPE svg PUBLIC "-//W3C//DTD SVG 20010904//EN"
 "http://www.w3.org/TR/2001/REC-SVG-20010904/DTD/svg10.dtd">
<svg version="1.0" xmlns="http://www.w3.org/2000/svg"
 width="640.000000pt" height="640.000000pt" viewBox="0 0 640.000000 640.000000"
 preserveAspectRatio="xMidYMid meet">
<metadata>
Created by potrace 1.14, written by Peter Selinger 2001-2017
</metadata>
<g transform="translate(0.000000,640.000000) scale(0.100000,-0.100000)"
fill="#000000" stroke="none">
<path d="M2460 5744 c-81 -28 -152 -92 -192 -173 l-23 -46 0 -565 0 -565 25
-50 c42 -83 124 -153 202 -171 18 -4 36 -9 41 -10 4 -1 106 -2 227 -3 l220 -1
0 -320 0 -320 -1022 -1 c-563 -1 -1027 -1 -1032 0 -4 1 -33 -5 -63 -14 -134
-39 -234 -140 -268 -270 -12 -47 -15 -121 -15 -367 l0 -308 240 0 240 0 0 240
0 240 960 0 960 0 0 -240 0 -240 240 0 240 0 0 240 0 240 960 0 960 0 0 -240
0 -240 240 0 241 0 -1 315 c-1 253 -4 325 -17 367 -38 129 -141 230 -270 263
-49 13 -205 15 -1085 15 l-1028 0 0 320 0 320 223 0 c180 0 233 3 273 16 101
34 192 131 214 229 14 64 13 1072 -1 1117 -31 94 -91 166 -174 208 l-50 25
-710 2 c-621 2 -716 0 -755 -13z"/>
<path d="M218 2222 c-101 -37 -187 -132 -208 -229 -7 -32 -10 -235 -8 -584 l3
-534 24 -48 c32 -62 99 -129 158 -158 l48 -24 565 0 565 0 47 23 c62 31 129
97 159 158 l24 49 0 565 0 565 -24 48 c-29 59 -96 126 -158 158 l-48 24 -550
2 c-495 2 -555 0 -597 -15z"/>
<path d="M2620 2223 c-82 -28 -151 -91 -193 -173 -22 -45 -22 -47 -24 -590 -2
-400 0 -556 9 -585 26 -88 93 -165 178 -208 l45 -22 565 0 565 0 49 24 c61 30
127 97 157 159 l24 47 0 565 c0 562 0 565 -22 610 -41 84 -121 152 -208 178
-29 8 -190 12 -570 11 -454 0 -536 -2 -575 -16z"/>
<path d="M5037 2229 c-55 -13 -131 -66 -170 -118 -69 -92 -68 -87 -65 -692 l3
-544 24 -48 c32 -62 99 -129 158 -158 l48 -24 544 -3 c486 -3 549 -1 595 14
104 34 195 131 216 232 7 31 10 236 8 583 l-3 534 -24 48 c-32 62 -99 129
-158 158 l-48 24 -545 2 c-303 1 -562 -3 -583 -8z"/>
</g>
</svg>
